<svg width="1340" height="397" viewBox="0 0 1340 397" fill="none" xmlns="http://www.w3.org/2000/svg">
<path d="M1115.99 391.403L1225.09 0H1286.03L1261.07 89.4635L1230.32 145.378H1239.02C1266.1 104.374 1290.48 83.872 1312.14 83.872C1321.04 83.872 1327.81 86.8541 1332.46 92.8183C1337.49 98.4098 1340 106.424 1340 116.862C1340 125.062 1338.65 133.636 1335.94 142.582L1266.88 391.403H1205.94L1272.1 153.765C1273.26 148.547 1273.84 144.446 1273.84 141.464C1273.84 136.618 1272.1 134.195 1268.62 134.195C1265.14 134.195 1260.88 136.805 1255.85 142.023C1251.21 146.869 1246.18 153.579 1240.76 162.153L1176.92 391.403H1115.99Z" fill="black"/>
<path d="M1013.33 396.989C994.763 396.989 980.254 392.33 969.808 383.011C958.975 373.691 953.559 361.39 953.559 346.107C953.559 339.397 954.719 332.128 957.041 324.3C961.296 309.39 966.519 297.275 972.71 287.956H1027.84L1020.3 315.913C1017.2 326.35 1015.65 334.924 1015.65 341.634C1015.65 348.716 1018.56 352.257 1024.36 352.257C1034.03 352.257 1040.8 345.734 1044.67 332.687C1046.61 324.487 1047.57 317.963 1047.57 313.117C1047.57 303.053 1045.64 293.733 1041.77 285.16C1037.9 276.586 1032.1 266.894 1024.36 256.084C1015.85 242.292 1009.46 230.736 1005.21 221.417C1000.95 211.725 998.825 200.729 998.825 188.428C998.825 179.108 1000.18 169.417 1002.89 159.352C1009.46 135.868 1021.46 117.416 1038.87 103.996C1056.28 90.5769 1076.01 83.8672 1098.06 83.8672C1116.63 83.8672 1131.14 88.5267 1141.59 97.8458C1152.42 107.165 1157.84 119.466 1157.84 134.75C1157.84 141.459 1156.68 148.728 1154.36 156.556C1151.26 168.485 1146.23 179.668 1139.27 190.105H1084.13L1091.1 164.943C1094.19 153.015 1095.74 144.628 1095.74 139.782C1095.74 132.327 1092.84 128.599 1087.04 128.599C1079.3 128.599 1073.88 134.19 1070.79 145.373C1068.85 153.574 1067.89 160.284 1067.89 165.503C1067.89 175.567 1069.82 184.7 1073.69 192.901C1077.56 201.102 1083.36 211.539 1091.1 224.213C1099.61 236.887 1105.99 248.256 1110.25 258.321C1114.51 268.013 1116.63 279.009 1116.63 291.31C1116.63 300.257 1115.28 309.39 1112.57 318.709C1105.61 343.311 1093.23 362.508 1075.43 376.301C1058.02 390.093 1037.32 396.989 1013.33 396.989Z" fill="black"/>
<path d="M802.922 396.999C794.023 396.999 787.253 394.204 782.61 388.612C777.58 382.648 775.065 374.447 775.065 364.01C775.065 355.809 776.42 347.235 779.128 338.289L848.188 89.4688H909.124L842.965 327.106C841.804 331.952 841.224 336.052 841.224 339.407C841.224 344.253 842.965 346.676 846.447 346.676C849.929 346.676 853.992 344.253 858.634 339.407C863.664 334.189 868.887 327.292 874.303 318.719L938.141 89.4688H999.076L923.632 360.655C922.085 365.501 921.311 370.16 921.311 374.633C921.311 381.343 923.632 385.071 928.275 385.816L926.534 391.408H853.992L855.733 385.816L884.75 335.493H876.045C848.962 376.497 824.588 396.999 802.922 396.999Z" fill="black"/>
<path d="M626.749 391.403V0H687.685V89.4635L673.176 145.378H681.881C689.232 125.994 697.937 110.897 707.997 100.087C718.056 89.2771 728.695 83.872 739.915 83.872C751.909 83.872 761.194 89.0907 767.771 99.5281C774.349 109.593 777.637 123.944 777.637 142.582V391.403H716.702V153.765C716.702 140.719 713.8 134.195 707.997 134.195C704.514 134.195 701.032 136.805 697.55 142.023C694.068 146.869 690.78 153.579 687.685 162.153V391.403H626.749Z" fill="black"/>
<path d="M525.223 396.989C502.009 396.989 483.632 390.466 470.091 377.419C456.549 364.372 449.779 346.666 449.779 324.3C449.779 310.135 451.713 298.02 455.582 287.956H510.714V315.913C510.714 330.078 511.875 339.77 514.196 344.989C516.518 349.834 520.193 352.257 525.223 352.257C534.895 352.257 539.731 345.734 539.731 332.687C539.731 319.641 536.443 308.085 529.866 298.02C523.675 287.956 513.616 275.282 499.688 259.998C483.439 243.224 471.058 227.754 462.546 213.589C454.035 199.424 449.779 182.277 449.779 162.148C449.779 138.664 456.743 119.839 470.671 105.674C484.986 91.1361 503.17 83.8672 525.223 83.8672C548.437 83.8672 566.814 90.3906 580.355 103.437C593.896 116.484 600.667 134.19 600.667 156.556C600.667 168.857 598.733 180.04 594.864 190.105H539.731V164.943C539.731 151.897 538.571 142.578 536.249 136.986C533.928 131.395 530.253 128.599 525.223 128.599C517.485 128.599 513.616 134.19 513.616 145.373C513.616 158.793 516.905 171.094 523.482 182.277C530.446 193.087 540.892 205.761 554.82 220.299C571.07 237.819 583.257 253.475 591.382 267.267C599.506 280.687 603.569 296.902 603.569 315.913C603.569 340.515 596.411 360.272 582.096 375.182C567.781 389.72 548.823 396.989 525.223 396.989Z" fill="black"/>
<path d="M313.652 396.99C301.658 396.99 292.373 391.957 285.795 381.893C279.218 371.455 275.93 356.917 275.93 338.279V89.459H336.865V327.096C336.865 340.143 339.767 346.666 345.57 346.666C349.052 346.666 352.534 344.243 356.017 339.397C359.499 334.179 362.787 327.283 365.882 318.709V89.459H426.818V360.645C426.818 368.1 427.785 374.065 429.72 378.538C432.041 383.011 434.943 385.434 438.425 385.807V391.398H365.882V385.807L380.391 335.483H371.686C364.335 354.867 355.63 369.964 345.57 380.774C335.511 391.584 324.872 396.99 313.652 396.99Z" fill="black"/>
<path d="M246.756 391.403H185.82V0H246.756V391.403Z" fill="black"/>
<path d="M63.8373 187.314C95.1757 187.314 119.356 195.515 136.38 211.917C153.79 228.318 162.495 253.666 162.495 287.96C162.495 320.764 153.79 346.298 136.38 364.563C119.356 382.456 95.1757 391.403 63.8373 391.403H0V0H63.8373C93.2412 0 116.068 8.20081 132.317 24.6025C148.567 40.6313 156.692 63.1836 156.692 92.2592C156.692 120.589 148.373 142.582 131.737 158.238C115.101 173.895 92.4674 181.723 63.8373 181.723V187.314ZM63.8373 50.3232V145.378H66.739C84.1492 145.378 92.8543 129.536 92.8543 97.8506C92.8543 66.1657 84.1492 50.3232 66.739 50.3232H63.8373ZM66.739 341.079C88.0181 341.079 98.6577 320.577 98.6577 279.573C98.6577 261.308 95.9494 247.516 90.5329 238.196C85.1164 228.505 77.1851 223.659 66.739 223.659H63.8373V341.079H66.739Z" fill="black"/>
</svg>
