<svg width="13" height="16" viewBox="0 0 13 16" fill="none" xmlns="http://www.w3.org/2000/svg">
<path d="M9.37762 0L9.43054 0.0211938L9.59988 0.158954L9.74805 0.27552L9.93856 0.423876L10.1502 0.58283L10.3407 0.731186L10.5101 0.858349L10.7006 1.00671L10.8593 1.13387L11.2721 1.45178L11.4203 1.56834L11.6108 1.7167L11.8859 1.92864L12.0341 2.0452L12.1294 2.12998L12.14 2.19356L12.1294 6.95157L12.0976 7.01515L12.013 7.08933L11.8859 7.1847L11.6954 7.33306L11.5579 7.44962L11.4097 7.56619L11.2403 7.69335L11.0393 7.84171L10.9017 7.95827L10.9123 8.00066L11.0816 8.12783L11.1874 8.2126L11.325 8.31857L11.4732 8.43514L11.6108 8.5411L11.7272 8.63648L11.8754 8.75304L12.0553 8.9014L12.1294 8.96498L12.14 8.98617L12.1294 13.8078L12.0553 13.8925L11.7166 14.1469L11.5261 14.2952L11.3568 14.4224L10.7852 14.8675L10.4677 15.1112L10.309 15.2383L10.1926 15.3231L10.0021 15.4715L9.86447 15.5774L9.69513 15.7152L9.54696 15.8212L9.44112 15.9165L9.39879 15.9377L9.3247 15.8742L9.21887 15.7258L9.10245 15.5774L8.95428 15.3973L8.73202 15.1006L8.58385 14.9098L8.46743 14.7615L8.37218 14.6343L8.26634 14.4966L8.14992 14.3482L7.93825 14.0833L7.90649 14.0515L7.91708 14.0091L8.01233 13.9349L8.1605 13.829L8.43568 13.617L8.60502 13.4793L8.88019 13.2673L9.06011 13.1296L9.21887 13.0024L9.39879 12.8646L9.54696 12.7481L9.67396 12.6527L9.70572 12.5785V9.71736L9.66338 9.63259L9.48346 9.45244L9.40937 9.36766L9.10245 9.06035V9.03916H9.08128L9.00719 8.95438L8.0335 7.97947L8.05467 7.93708L8.23459 7.76753L8.56268 7.43903L8.63677 7.35425L9.06011 6.93038L9.17653 6.80321L9.66338 6.31575L9.70572 6.25217V3.35922L9.6528 3.27444L9.50463 3.15788L9.39879 3.0731L9.25062 2.95654L9.06011 2.80818L8.64735 2.49027L8.45684 2.34192L8.28751 2.21475L8.13933 2.09819L8.02291 2.00281L7.91708 1.90744L7.93825 1.85446L8.05467 1.7273L8.19225 1.53655L8.32984 1.367L8.43568 1.22924L8.5521 1.08088L8.70027 0.879543L8.97544 0.540442L9.10245 0.360295L9.20828 0.222535L9.30354 0.0953721L9.37762 0Z" fill="#D1FD68"/>
<path d="M1.4923 16L1.54521 15.9681L1.69339 15.8404L1.83097 15.734L2.02148 15.5851L2.1379 15.5L2.28607 15.383L2.42366 15.2766L2.61416 15.1277L2.83642 14.9574L2.99517 14.8298L3.1751 14.6915L3.33385 14.5638L3.47144 14.4574L3.57728 14.3723L3.72545 14.2553L3.90537 14.117L4.05354 14L4.16996 13.9043L4.23346 13.8404L4.22288 2.17021L4.20171 2.09575L4.12763 2.03192L4.02179 1.95745L3.8842 1.85106L3.72545 1.73404L3.59844 1.6383L3.45027 1.52128L3.29152 1.39362L3.07984 1.23404L2.88934 1.08511L2.593 0.851064L2.42366 0.723405L2.28607 0.617022L2.1379 0.5L1.97914 0.372341L1.64047 0.117022L1.52405 0.0106388L1.4923 5.06639e-07L1.40763 0.0851069L1.31237 0.212766L1.17479 0.382979L1.06895 0.521277L0.941945 0.680852L0.783191 0.893617L0.571517 1.17021L0.444514 1.32979L0.285759 1.54255L0.190506 1.65957L0.0952529 1.78723L0 1.90426L0.0105837 1.94681L0.169339 2.05319L0.338677 2.18085L0.518599 2.31915L0.709105 2.46809L0.86786 2.59575L1.04778 2.73404L1.19595 2.85106L1.33354 2.95745L1.4923 3.08511L1.64047 3.20213L1.76747 3.29787L1.79922 3.37234V9.84043L1.80981 12.5532L1.78864 12.6596L1.72514 12.734L1.59813 12.8298L1.44996 12.9468L1.34412 13.0319L1.20654 13.1383L0.825525 13.4362L0.687938 13.5426L0.306926 13.8404L0.158755 13.9574L0.0211673 14.0638L0.0105837 14.1064L0.105837 14.2021L0.211673 14.3511L0.349261 14.5319L0.476265 14.6915L0.624436 14.8936L0.740856 15.0426L0.846693 15.1809L0.973696 15.3404L1.12187 15.5426L1.25946 15.7234L1.37588 15.8617L1.43938 15.9468L1.4923 16Z" fill="#D1FD68"/>
</svg>
