<svg width="135" height="40" viewBox="0 0 135 40" fill="none" xmlns="http://www.w3.org/2000/svg">
<g clip-path="url(#clip0_117_38)">
<path d="M112.432 39.4367L123.423 0H129.562L127.048 9.0141L123.95 14.6479H124.827C127.555 10.5164 130.011 8.45072 132.193 8.45072C133.09 8.45072 133.772 8.75118 134.24 9.35212C134.747 9.9155 135 10.723 135 11.7747C135 12.601 134.863 13.4648 134.591 14.3662L127.633 39.4367H121.494L128.159 15.493C128.276 14.9672 128.335 14.554 128.335 14.2535C128.335 13.7653 128.159 13.5211 127.808 13.5211C127.458 13.5211 127.029 13.7841 126.522 14.3099C126.054 14.7981 125.548 15.4742 125.002 16.3381L118.571 39.4367H112.432Z" fill="white"/>
<path d="M102.089 39.9986C100.219 39.9986 98.7569 39.5291 97.7045 38.5901C96.6131 37.6511 96.0674 36.4117 96.0674 34.8718C96.0674 34.1957 96.1843 33.4633 96.4182 32.6746C96.8469 31.1723 97.3731 29.9516 97.9968 29.0126H103.551L102.791 31.8295C102.479 32.8812 102.323 33.745 102.323 34.4211C102.323 35.1347 102.616 35.4915 103.2 35.4915C104.175 35.4915 104.857 34.8342 105.247 33.5197C105.442 32.6934 105.539 32.0361 105.539 31.5478C105.539 30.5338 105.344 29.5948 104.954 28.7309C104.565 27.8671 103.98 26.8906 103.2 25.8014C102.343 24.4117 101.7 23.2474 101.271 22.3084C100.842 21.3319 100.628 20.2239 100.628 18.9844C100.628 18.0455 100.764 17.0689 101.037 16.0549C101.7 13.6887 102.908 11.8295 104.662 10.4774C106.416 9.12528 108.404 8.44922 110.626 8.44922C112.497 8.44922 113.958 8.9187 115.011 9.85767C116.102 10.7966 116.648 12.0361 116.648 13.576C116.648 14.252 116.531 14.9844 116.297 15.7732C115.985 16.975 115.478 18.1018 114.777 19.1535H109.222L109.924 16.6182C110.236 15.4164 110.392 14.5713 110.392 14.083C110.392 13.3319 110.099 12.9563 109.515 12.9563C108.735 12.9563 108.19 13.5196 107.878 14.6464C107.683 15.4727 107.585 16.1488 107.585 16.6746C107.585 17.6887 107.78 18.6089 108.17 19.4351C108.56 20.2614 109.144 21.3131 109.924 22.5901C110.782 23.8671 111.425 25.0126 111.853 26.0267C112.282 27.0032 112.497 28.1112 112.497 29.3507C112.497 30.2521 112.36 31.1722 112.087 32.1112C111.386 34.5901 110.138 36.5244 108.345 37.914C106.591 39.3037 104.506 39.9986 102.089 39.9986Z" fill="white"/>
<path d="M80.8914 39.9996C79.9949 39.9996 79.3128 39.7179 78.845 39.1546C78.3383 38.5536 78.085 37.7273 78.085 36.6757C78.085 35.8494 78.2214 34.9855 78.4942 34.0841L85.4518 9.01367H91.5908L84.9256 32.9574C84.8087 33.4456 84.7502 33.8588 84.7502 34.1968C84.7502 34.6851 84.9256 34.9292 85.2764 34.9292C85.6272 34.9292 86.0365 34.6851 86.5042 34.1968C87.0109 33.671 87.5371 32.9761 88.0828 32.1123L94.5142 9.01367H100.653L93.0525 36.3376C92.8966 36.8259 92.8186 37.2954 92.8186 37.7461C92.8186 38.4222 93.0525 38.7977 93.5202 38.8729L93.3448 39.4362H86.0365L86.2119 38.8729L89.1352 33.8024H88.2582C85.5298 37.9339 83.0741 39.9996 80.8914 39.9996Z" fill="white"/>
<path d="M63.1426 39.4367V0H69.2816V9.0141L67.8199 14.6479H68.6969C69.4375 12.6949 70.3145 11.1737 71.328 10.0845C72.3414 8.99532 73.4133 8.45072 74.5436 8.45072C75.752 8.45072 76.6874 8.97654 77.35 10.0282C78.0127 11.0423 78.344 12.4883 78.344 14.3662V39.4367H72.205V15.493C72.205 14.1784 71.9126 13.5211 71.328 13.5211C70.9772 13.5211 70.6264 13.7841 70.2756 14.3099C69.9247 14.7981 69.5934 15.4742 69.2816 16.3381V39.4367H63.1426Z" fill="white"/>
<path d="M52.9142 39.9986C50.5755 39.9986 48.724 39.3413 47.3598 38.0267C45.9956 36.7122 45.3135 34.9281 45.3135 32.6746C45.3135 31.2474 45.5084 30.0267 45.8981 29.0126H51.4525V31.8295C51.4525 33.2568 51.5694 34.2333 51.8033 34.7591C52.0372 35.2474 52.4075 35.4915 52.9142 35.4915C53.8886 35.4915 54.3759 34.8342 54.3759 33.5197C54.3759 32.2051 54.0445 31.0408 53.3819 30.0267C52.7583 29.0126 51.7448 27.7356 50.3416 26.1957C48.7046 24.5056 47.4573 22.9469 46.5997 21.5197C45.7422 20.0924 45.3135 18.3647 45.3135 16.3366C45.3135 13.9704 46.0151 12.0736 47.4183 10.6464C48.8605 9.18161 50.6924 8.44922 52.9142 8.44922C55.2529 8.44922 57.1043 9.1065 58.4685 10.4211C59.8328 11.7356 60.5149 13.5196 60.5149 15.7732C60.5149 17.0126 60.32 18.1394 59.9302 19.1535H54.3759V16.6182C54.3759 15.3037 54.2589 14.3647 54.0251 13.8013C53.7912 13.238 53.4209 12.9563 52.9142 12.9563C52.1346 12.9563 51.7448 13.5196 51.7448 14.6464C51.7448 15.9985 52.0762 17.238 52.7388 18.3647C53.4404 19.4539 54.4928 20.7309 55.896 22.1957C57.5331 23.961 58.7609 25.5384 59.5794 26.9281C60.398 28.2802 60.8072 29.914 60.8072 31.8295C60.8072 34.3084 60.0861 36.299 58.644 37.8014C57.2018 39.2662 55.2918 39.9986 52.9142 39.9986Z" fill="white"/>
<path d="M31.5992 39.9996C30.3909 39.9996 29.4554 39.4926 28.7928 38.4785C28.1301 37.4269 27.7988 35.9621 27.7988 34.0841V9.01367H33.9379V32.9574C33.9379 34.2719 34.2302 34.9292 34.8149 34.9292C35.1657 34.9292 35.5165 34.6851 35.8673 34.1968C36.2181 33.671 36.5494 32.9761 36.8612 32.1123V9.01367H43.0002V36.3376C43.0002 37.0888 43.0977 37.6898 43.2926 38.1405C43.5264 38.5912 43.8188 38.8353 44.1696 38.8729V39.4362H36.8612V38.8729L38.3229 33.8024H37.4459C36.7053 35.7555 35.8283 37.2766 34.8149 38.3658C33.8014 39.455 32.7295 39.9996 31.5992 39.9996Z" fill="white"/>
<path d="M24.8597 39.4367H18.7207V0H24.8597V39.4367Z" fill="white"/>
<path d="M6.43137 18.8733C9.58858 18.8733 12.0247 19.6996 13.7397 21.3521C15.4937 23.0047 16.3708 25.5587 16.3708 29.0141C16.3708 32.3193 15.4937 34.8921 13.7397 36.7324C12.0247 38.5353 9.58858 39.4367 6.43137 39.4367H0V0H6.43137C9.39369 0 11.6934 0.826292 13.3305 2.47888C14.9675 4.0939 15.7861 6.36621 15.7861 9.29579C15.7861 12.1503 14.9481 14.3662 13.272 15.9437C11.596 17.5212 9.31574 18.3099 6.43137 18.3099V18.8733ZM6.43137 5.07043V14.6479H6.7237C8.47771 14.6479 9.35472 13.0517 9.35472 9.85917C9.35472 6.66668 8.47771 5.07043 6.7237 5.07043H6.43137ZM6.7237 34.3662C8.86749 34.3662 9.93939 32.3005 9.93939 28.1691C9.93939 26.3287 9.66654 24.939 9.12085 24C8.57516 23.0235 7.77611 22.5352 6.7237 22.5352H6.43137V34.3662H6.7237Z" fill="white"/>
</g>
<defs>
<clipPath id="clip0_117_38">
<rect width="135" height="40" fill="white"/>
</clipPath>
</defs>
</svg>
