<svg xmlns="http://www.w3.org/2000/svg" viewBox="0 0 24.35 9.59"><g id="Layer_2" data-name="Layer 2"><g id="Layer_1-2" data-name="Layer 1"><path d="M1,9.45V5.83H.55L0,0H1l.4,5.2h.09L1.91,0h1L2.38,5.83H2V9.45Z"/><path d="M4.52,9.59a1,1,0,0,1-.79-.42,3.13,3.13,0,0,1-.47-1.26,12.17,12.17,0,0,1-.15-2.1A12.3,12.3,0,0,1,3.26,3.7a3.13,3.13,0,0,1,.47-1.26A1,1,0,0,1,4.52,2a1,1,0,0,1,.8.41A3.14,3.14,0,0,1,5.78,3.7a11.25,11.25,0,0,1,.16,2.11,11.14,11.14,0,0,1-.16,2.1,3.14,3.14,0,0,1-.46,1.26A1,1,0,0,1,4.52,9.59Zm0-.85c.13,0,.23-.22.28-.67s.08-1.2.08-2.26S4.85,4,4.8,3.55s-.15-.67-.28-.67-.22.22-.27.67a20,20,0,0,0-.08,2.26,20.07,20.07,0,0,0,.08,2.26C4.3,8.52,4.39,8.74,4.52,8.74Z"/><path d="M7.14,9.59a.52.52,0,0,1-.48-.32,1.91,1.91,0,0,1-.17-.92V2.16h1v6a1.09,1.09,0,0,0,0,.37.13.13,0,0,0,.13.1c.07,0,.14-.06.22-.18A2.44,2.44,0,0,0,8.1,7.9V2.16h1V8.74a1.17,1.17,0,0,0,.06.42c0,.11.09.17.15.19v.1H8.1v-.1l.26-1.1H8.2a3.14,3.14,0,0,1-.49,1A.75.75,0,0,1,7.14,9.59Z"/><path d="M9.7,9.45V2.16h1v.11l-.24,1.09h.14a3.32,3.32,0,0,1,.47-1A.72.72,0,0,1,11.63,2a.44.44,0,0,1,.41.29,2.19,2.19,0,0,1,.14.89,7,7,0,0,1,0,.8,4.48,4.48,0,0,1-.11.62H11.1q0-.19.06-.42a3.31,3.31,0,0,0,0-.44,2.22,2.22,0,0,0,0-.44c0-.09-.07-.13-.14-.13s-.11,0-.16.15a1.84,1.84,0,0,0-.16.39V9.45Z"/><path d="M12.54,9.59a.77.77,0,0,1-.72-.42,2.43,2.43,0,0,1-.21-1.26,11.11,11.11,0,0,1,.33-2.1,14.26,14.26,0,0,1,.67-2.17,3.66,3.66,0,0,1,.76-1.22A1.27,1.27,0,0,1,14.26,2a.71.71,0,0,1,.62.31,1.62,1.62,0,0,1,.24.89A5.07,5.07,0,0,1,15,4.58a7.45,7.45,0,0,1-.27.92,6.31,6.31,0,0,1-.3.69H12.74l.2-.81h.76c.05-.14.1-.3.16-.48s.12-.42.18-.7a4.47,4.47,0,0,0,.18-1c0-.21,0-.31-.14-.31s-.29.22-.45.67-.37,1.2-.63,2.26-.41,1.81-.47,2.26,0,.67.12.67.21-.08.29-.24a4.39,4.39,0,0,0,.26-.8c0-.16.05-.31.07-.45a2.58,2.58,0,0,0,.05-.36h.91a2.66,2.66,0,0,1,0,.39,4.3,4.3,0,0,1-.09.47,4,4,0,0,1-.36,1,1.7,1.7,0,0,1-.54.63A1.22,1.22,0,0,1,12.54,9.59Z"/><path d="M15.11,9.59a.53.53,0,0,1-.46-.28,1.65,1.65,0,0,1-.2-.78,4.49,4.49,0,0,1,.13-1.1,5.12,5.12,0,0,1,.64-1.58,1.07,1.07,0,0,1,.86-.58.51.51,0,0,1,.45.35,2,2,0,0,1,.11.93h.14l.07-1.32.3-1.29a3.71,3.71,0,0,0,.14-.8c0-.18-.05-.26-.14-.26s-.16.08-.24.25a3.53,3.53,0,0,0-.26.8,3.06,3.06,0,0,0-.1.41c0,.13-.05.26-.07.39h-.91a1.68,1.68,0,0,1,0-.38,3.1,3.1,0,0,1,.09-.5,3.64,3.64,0,0,1,.37-1,2,2,0,0,1,.56-.63A1.26,1.26,0,0,1,17.31,2a.77.77,0,0,1,.83.59A3.63,3.63,0,0,1,18,4.4L17,8.74a1.16,1.16,0,0,0,0,.4c0,.11,0,.18.1.21l0,.1H15.86l0-.1.49-1h-.15a3.48,3.48,0,0,1-.54,1A.8.8,0,0,1,15.11,9.59Zm.52-.85c.1,0,.21-.11.32-.33a6.24,6.24,0,0,0,.32-1,4.94,4.94,0,0,0,.16-1c0-.22-.06-.33-.16-.33s-.21.1-.31.31a6.25,6.25,0,0,0-.32,1,4.79,4.79,0,0,0-.17,1C15.47,8.63,15.52,8.74,15.63,8.74Z"/><path d="M18.6,9.59A1,1,0,0,1,18,9.37a1,1,0,0,1-.32-.6,2.32,2.32,0,0,1,0-.86,3.92,3.92,0,0,1,.36-1H19q-.06.18-.12.39c0,.14-.07.28-.11.42a2.63,2.63,0,0,0-.11.75c0,.14.07.22.17.22A.29.29,0,0,0,19,8.56a1.61,1.61,0,0,0,.2-.54,2.4,2.4,0,0,0,.06-1A6,6,0,0,0,19,6a5.38,5.38,0,0,1-.28-.71,2.41,2.41,0,0,1-.1-.7,3.48,3.48,0,0,1,.09-.87,2.78,2.78,0,0,1,.4-.94,1.75,1.75,0,0,1,.59-.59A1.43,1.43,0,0,1,20.4,2a1,1,0,0,1,.62.21,1,1,0,0,1,.33.59,1.94,1.94,0,0,1-.06.88c0,.16-.09.31-.14.48a2.14,2.14,0,0,1-.19.4h-.89l.1-.34a3.69,3.69,0,0,0,.1-.39,2.83,2.83,0,0,0,.1-.75c0-.15-.06-.23-.16-.23s-.15.05-.22.16a1.67,1.67,0,0,0-.18.48,2.26,2.26,0,0,0-.06.95,4.12,4.12,0,0,0,.32,1c.1.29.19.53.25.74a2.85,2.85,0,0,1,.11.7,3.39,3.39,0,0,1-.09.87,2.77,2.77,0,0,1-.66,1.34A1.46,1.46,0,0,1,18.6,9.59Z"/><path d="M21.77,9.59a.77.77,0,0,1-.72-.42,2.43,2.43,0,0,1-.21-1.26,11.11,11.11,0,0,1,.33-2.1,14.26,14.26,0,0,1,.67-2.17,3.66,3.66,0,0,1,.76-1.22A1.27,1.27,0,0,1,23.49,2a.71.71,0,0,1,.62.31,1.62,1.62,0,0,1,.24.89,5.07,5.07,0,0,1-.17,1.35,7.45,7.45,0,0,1-.27.92,6.31,6.31,0,0,1-.3.69H22l.2-.81h.76c.05-.14.1-.3.16-.48s.12-.42.18-.7a4.47,4.47,0,0,0,.18-1c0-.21,0-.31-.14-.31s-.29.22-.45.67-.37,1.2-.63,2.26-.41,1.81-.47,2.26,0,.67.12.67.21-.08.29-.24a4.39,4.39,0,0,0,.26-.8c0-.16.05-.31.07-.45a2.58,2.58,0,0,0,.05-.36h.91a2.66,2.66,0,0,1,0,.39,4.3,4.3,0,0,1-.09.47,4,4,0,0,1-.36,1,1.7,1.7,0,0,1-.54.63A1.22,1.22,0,0,1,21.77,9.59Z"/></g></g></svg>