<svg xmlns:xlink="http://www.w3.org/1999/xlink" xmlns="http://www.w3.org/2000/svg" width="20" height="20" viewBox="0 0 20 20" fill="none" preserveAspectRatio="xMidYMid meet" aria-hidden="true" role="img">
<path d="M8.57518 0.825C9.00952 0.574233 9.50222 0.442215 10.0037 0.442215C10.5053 0.442215 10.998 0.574233 11.4323 0.825L17.2352 4.175C17.6695 4.42576 18.0302 4.78643 18.2809 5.22076C18.5317 5.65508 18.6637 6.14776 18.6638 6.64929V13.3507C18.6637 13.8522 18.5317 14.3449 18.2809 14.7792C18.0302 15.2136 17.6695 15.5742 17.2352 15.825L11.4323 19.175C10.998 19.4258 10.5053 19.5578 10.0037 19.5578C9.50222 19.5578 9.00952 19.4258 8.57518 19.175L2.77232 15.825C2.33799 15.5742 1.97732 15.2136 1.72655 14.7792C1.47579 14.3449 1.34376 13.8522 1.34375 13.3507V6.64929C1.34376 6.14776 1.47579 5.65508 1.72655 5.22076C1.97732 4.78643 2.33799 4.42576 2.77232 4.175L8.57518 0.825Z" fill="#1F57C3"></path>
<path d="M10.4537 6.01145L11.3023 8.29787L13.6487 8.4293C13.7657 8.43581 13.8777 8.47905 13.9687 8.55287C14.0616 8.62716 14.1301 8.7293 14.1666 8.84573C14.2032 8.9626 14.2057 9.0875 14.1737 9.20573C14.1426 9.32238 14.0777 9.42724 13.9873 9.50716L12.1601 11.0529L12.7701 13.43C12.7988 13.55 12.7926 13.6756 12.7523 13.7922C12.7131 13.9068 12.6407 14.0072 12.5444 14.0807C12.4504 14.1518 12.3364 14.1914 12.2185 14.194C12.1007 14.1966 11.985 14.1619 11.888 14.095L9.91013 12.7557L7.93585 14.0857C7.83966 14.1531 7.72473 14.1885 7.60732 14.1869C7.48991 14.1854 7.37595 14.147 7.28156 14.0772C7.18484 14.0048 7.11176 13.9054 7.07156 13.7914C7.03008 13.6757 7.02239 13.5506 7.04942 13.4307L7.65442 11.0636L5.83299 9.50645C5.7429 9.42662 5.6783 9.32203 5.64727 9.20573C5.61531 9.0875 5.61779 8.9626 5.65442 8.84573C5.68979 8.7308 5.75839 8.6289 5.85156 8.55287C5.94263 8.47914 6.05457 8.43591 6.17156 8.4293L8.51799 8.29787L9.36656 6.01145C9.40924 5.89847 9.48427 5.80058 9.58228 5.73002C9.67795 5.66171 9.79258 5.625 9.91013 5.625C10.0277 5.625 10.1423 5.66171 10.238 5.73002C10.336 5.80058 10.411 5.89847 10.4537 6.01145Z" stroke="#FFFFFF" stroke-width="1.21px" stroke-linecap="round" stroke-linejoin="round" fill="none"></path>
</svg>